# xmcd
#
# Track frame offsets:
#	187
#	9562
#	21580
#	30367
#	45797
#	56850
#	66312
#	80437
#	93735
#	106117
#	116197
#	128500
#
# Disc length: 1902 seconds
# Revision: 0
# Processed by: cddbd v1.5.2PL0 Copyright (c) Steve Scherf et al.
# Submitted via: dBpowerAMP V12.0
#
DISCID=97076c0c
DTITLE=Riders in the Sky - Saddle Pals
DYEAR=1992
DGENRE=Country
TTITLE0=Yippie-Yi-Yo and Away We Go
TTITLE1=The Old Chisholm Trail
TTITLE2=Get Along Little Dogies
TTITLE3=Biscuit Blues
TTITLE4=Sweet Betsy from Pike
TTITLE5=There's a Great Big Candy Roundup
TTITLE6=I'm Going to Leave Old Texas Now
TTITLE7=The Cowboy's ABC
TTITLE8=Clementine
TTITLE9="One, Two, Three" Said the Miner
TTITLE10=Fiddle Medley
TTITLE11=Down the Lullabye Trail
EXTD=
EXTT0=
EXTT1=
EXTT2=
EXTT3=
EXTT4=
EXTT5=
EXTT6=
EXTT7=
EXTT8=
EXTT9=
EXTT10=
EXTT11=
PLAYORDER=
